<?xml version="1.0" encoding="UTF-8"?><svg xmlns="http://www.w3.org/2000/svg" xmlns:xlink="http://www.w3.org/1999/xlink" viewBox="0 0 50 50" version="1.1"><path d="M12 2C9.25 2 7 4.25 7 7v36c0 2.75 2.25 5 5 5h28c2.75 0 5-2.25 5-5V7c0-2.75-2.25-5-5-5zm0 2h28c1.668 0 3 1.332 3 3v36c0 1.668-1.332 3-3 3H12c-1.668 0-3-1.332-3-3V7c0-1.668 1.332-3 3-3zm9.406 5l-4.937.031s.004 16.23.031 16.157c15.137-5.891 14-1.72 14-1.72v17.47h4.75V23.53c0-9.59-13.844-4.125-13.844-4.125zm10.25.031s-1.707 3.942-3.593 6.25h5.25c2.847-3.687 3.78-6.25 3.78-6.25zM16.563 30.97v9.937l4.968-4.968z" id="surface1"/><metadata><rdf:RDF xmlns:rdf="http://www.w3.org/1999/02/22-rdf-syntax-ns#" xmlns:rdfs="http://www.w3.org/2000/01/rdf-schema#" xmlns:dc="http://purl.org/dc/elements/1.1/"><rdf:Description about="https://iconscout.com/legal#licenses" dc:title="heroku" dc:description="heroku" dc:publisher="Iconscout" dc:date="2017-12-09" dc:format="image/svg+xml" dc:language="en"><dc:creator><rdf:Bag><rdf:li>Icons8</rdf:li></rdf:Bag></dc:creator></rdf:Description></rdf:RDF></metadata></svg>